HIERARCHY
ROOT joint_Root
{
	OFFSET 0.0 0.0 0.0
	CHANNELS 6 Xposition Yposition Zposition Zrotation Xrotation Yrotation 
	JOINT Hips
	{
		OFFSET -17.1583 93.1646 452.98
		CHANNELS 6 Xposition Yposition Zposition Zrotation Xrotation Yrotation 
		JOINT Spine
		{
			OFFSET 15.7357 0.0 0.0
			CHANNELS 6 Xposition Yposition Zposition Zrotation Xrotation Yrotation 
			JOINT Chest
			{
				OFFSET 8.98455 -0.406207 0.0
				CHANNELS 6 Xposition Yposition Zposition Zrotation Xrotation Yrotation 
				JOINT Neck
				{
					OFFSET 16.3773 0.0 0.0
					CHANNELS 6 Xposition Yposition Zposition Zrotation Xrotation Yrotation 
					JOINT Head
					{
						OFFSET 6.45672 0.0 0.0
						CHANNELS 6 Xposition Yposition Zposition Zrotation Xrotation Yrotation 
						End Site
						{
							OFFSET 0.0 0.0 0.0
						}
					}
				}
				JOINT Shoulder_L
				{
					OFFSET 12.9942 -0.242716 4.98039
					CHANNELS 6 Xposition Yposition Zposition Zrotation Xrotation Yrotation 
					JOINT UpperArm_L
					{
						OFFSET 5.34809 0.0 0.0
						CHANNELS 6 Xposition Yposition Zposition Zrotation Xrotation Yrotation 
						JOINT LowerArm_L
						{
							OFFSET 24.3286 1.87007e-05 0.0
							CHANNELS 6 Xposition Yposition Zposition Zrotation Xrotation Yrotation 
							JOINT Hand_L
							{
								OFFSET 22.2916 0.0 0.0
								CHANNELS 6 Xposition Yposition Zposition Zrotation Xrotation Yrotation 
								End Site
								{
									OFFSET 0.0 0.0 0.0
								}
							}
						}
					}
				}
				JOINT Shoulder_R
				{
					OFFSET 12.9945 -0.242716 -4.98039
					CHANNELS 6 Xposition Yposition Zposition Zrotation Xrotation Yrotation 
					JOINT UpperArm_R
					{
						OFFSET -5.34813 0.0 0.0
						CHANNELS 6 Xposition Yposition Zposition Zrotation Xrotation Yrotation 
						JOINT LowerArm_R
						{
							OFFSET -24.3289 0.000322201 0.0
							CHANNELS 6 Xposition Yposition Zposition Zrotation Xrotation Yrotation 
							JOINT Hand_R
							{
								OFFSET -22.2915 -0.000108084 0.0
								CHANNELS 6 Xposition Yposition Zposition Zrotation Xrotation Yrotation 
								End Site
								{
									OFFSET 0.0 0.0 0.0
								}
							}
						}
					}
				}
			}
		}
		JOINT UpperLeg_L
		{
			OFFSET -2.19248 -6.46944 0.0
			CHANNELS 6 Xposition Yposition Zposition Zrotation Xrotation Yrotation 
			JOINT LowerLeg_L
			{
				OFFSET 39.0811 0.0 -1.23785e-05
				CHANNELS 6 Xposition Yposition Zposition Zrotation Xrotation Yrotation 
				JOINT Foot_L
				{
					OFFSET 40.9854 0.0 -1.26872e-05
					CHANNELS 6 Xposition Yposition Zposition Zrotation Xrotation Yrotation 
					JOINT Toes_L
					{
						OFFSET 11.7543 0.0 0.0
						CHANNELS 6 Xposition Yposition Zposition Zrotation Xrotation Yrotation 
						End Site
						{
							OFFSET 0.0 0.0 0.0
						}
					}
				}
			}
		}
		JOINT UpperLeg_R
		{
			OFFSET -2.19251 6.46944 0.0
			CHANNELS 6 Xposition Yposition Zposition Zrotation Xrotation Yrotation 
			JOINT LowerLeg_R
			{
				OFFSET -39.0811 -0.00228153 -0.0401928
				CHANNELS 6 Xposition Yposition Zposition Zrotation Xrotation Yrotation 
				JOINT Foot_R
				{
					OFFSET -40.9854 0.0 0.0
					CHANNELS 6 Xposition Yposition Zposition Zrotation Xrotation Yrotation 
					JOINT Toes_R
					{
						OFFSET -11.7543 0.0 0.0
						CHANNELS 6 Xposition Yposition Zposition Zrotation Xrotation Yrotation 
						End Site
						{
							OFFSET 0.0 0.0 0.0
						}
					}
				}
			}
		}
	}
}
MOTION
Frames:	4
Frame Time:	0.0333333
0.000000 0.000000 0.000000 0.000000 0.000000 -0.000000 150.645000 89.990900 250.025000 -78.026700 43.526800 173.592000 15.735700 0.000005 -0.000001 77.704300 85.838300 -72.783000 8.984550 -0.406207 -0.000000 0.475602 -2.084390 9.845360 16.377300 -0.000001 -0.000001 3.562450 11.116400 2.093860 6.456720 -0.000001 -0.000000 7.443120 18.538300 -1.468320 12.994200 -0.242716 4.980390 -93.226000 9.532270 -71.203900 5.348090 -0.000007 -0.000001 -75.016500 5.972190 2.044090 24.328600 0.000019 0.000005 4.027280 36.099800 -6.813410 22.291600 -0.000001 0.000005 -16.616300 5.268070 0.950320 12.994500 -0.242716 -4.980390 87.877200 6.740340 -72.473100 -5.348130 -0.000001 -0.000004 -61.154000 8.578150 -9.939980 -24.328900 0.000322 -0.000009 -0.278402 -0.828884 -18.432100 -22.291500 -0.000108 -0.000004 13.013000 5.247410 1.501750 -2.192480 -6.469440 -0.000000 -170.389000 1.366850 -16.070900 39.081100 -0.000007 -0.000012 0.328338 -0.127757 68.738100 40.985400 -0.000006 -0.000013 -0.837497 1.097870 -36.079900 11.754300 -0.000000 0.000003 -0.000086 -0.001439 -16.635900 -2.192510 6.469440 -0.000001 -177.897000 7.573620 172.130000 -39.081100 -0.002282 -0.040193 -0.066286 0.117480 30.639300 -40.985400 0.000008 0.000006 -13.112100 -5.664740 -74.554700 -11.754300 -0.000006 -0.000006 -0.007874 0.254670 -6.230850
0.000000 0.000000 0.000000 0.000000 0.000000 -0.000000 152.792000 90.976400 247.829000 -79.288300 43.246100 174.606000 15.735700 0.000005 -0.000001 89.974200 85.832400 -85.387500 8.984550 -0.406207 -0.000000 0.597354 -0.290110 9.168100 16.377300 -0.000001 -0.000001 3.140930 10.714900 2.306310 6.456720 -0.000001 -0.000000 7.465710 17.301400 -2.370130 12.994200 -0.242716 4.980390 -93.116700 8.958200 -70.726200 5.348090 -0.000007 -0.000001 -76.116600 -2.065970 5.894250 24.328600 0.000019 0.000005 0.325328 34.490400 -0.574553 22.291600 -0.000001 0.000005 -15.011800 5.099370 5.125920 12.994500 -0.242716 -4.980390 88.110800 6.264980 -73.182100 -5.348130 -0.000001 -0.000004 -59.883500 10.941100 -14.729900 -24.328900 0.000322 -0.000009 -3.072280 -5.551210 -29.004000 -22.291500 -0.000108 -0.000004 12.290000 5.392540 -2.703600 -2.192480 -6.469440 -0.000000 -172.882000 -0.597913 -19.981700 39.081100 -0.000007 -0.000012 0.268643 -0.114747 66.870000 40.985400 -0.000006 -0.000013 -2.873950 7.356900 -40.181700 11.754300 -0.000000 0.000003 0.000806 0.014893 -15.972800 -2.192510 6.469440 -0.000001 -179.153000 8.459460 175.920000 -39.081100 -0.002282 -0.040193 -0.070018 0.143103 27.130600 -40.985400 0.000008 0.000006 -13.222100 -5.680950 -71.851600 -11.754300 -0.000006 -0.000006 -0.005045 0.229568 -7.254900
0.000000 0.000000 0.000000 0.000000 0.000000 -0.000000 154.820000 91.897200 245.708000 -80.300700 42.580000 174.939000 15.735700 0.000005 -0.000001 100.358000 85.738700 -96.022100 8.984550 -0.406207 -0.000000 0.585065 1.260590 8.658310 16.377300 -0.000001 -0.000001 2.359120 10.276400 2.475170 6.456720 -0.000001 -0.000000 7.124130 16.143200 -3.257040 12.994200 -0.242716 4.980390 -93.278300 9.074080 -70.039400 5.348090 -0.000007 -0.000001 -73.993900 -7.505000 11.204500 24.328600 0.000019 0.000005 1.475010 35.884200 -2.515480 22.291600 -0.000001 0.000005 -14.700100 5.106430 4.965820 12.994500 -0.242716 -4.980390 88.267200 5.954400 -73.742500 -5.348130 -0.000001 -0.000004 -58.449700 10.650600 -19.680000 -24.328900 0.000322 -0.000009 -6.675610 -8.691060 -37.752700 -22.291500 -0.000108 -0.000004 9.893750 5.497070 -6.422340 -2.192480 -6.469440 -0.000000 -175.027000 -2.453800 -23.024600 39.081100 -0.000007 -0.000012 0.204103 -0.109708 61.740300 40.985400 -0.000006 -0.000013 -5.039630 12.510100 -46.800300 11.754300 -0.000000 0.000003 0.000837 0.015541 -15.946500 -2.192510 6.469440 -0.000001 179.706000 10.387700 179.106000 -39.081100 -0.002282 -0.040193 -0.058320 0.141574 23.526100 -40.985400 0.000008 0.000006 -13.074900 -5.258320 -68.327800 -11.754300 -0.000006 -0.000006 -0.001646 0.191859 -8.789850
0.000000 0.000000 0.000000 0.000000 0.000000 -0.000000 156.753000 92.589300 243.632000 -81.353100 41.509700 174.752000 15.735700 0.000005 -0.000001 109.395000 85.727400 -105.411000 8.984550 -0.406207 -0.000000 0.218058 2.574790 7.957510 16.377300 -0.000001 -0.000001 1.448830 9.772270 2.672910 6.456720 -0.000001 -0.000000 6.444660 14.894000 -3.328680 12.994200 -0.242716 4.980390 -93.363400 8.892490 -69.183600 5.348090 -0.000007 -0.000001 -71.261900 -7.936370 15.578100 24.328600 0.000019 0.000005 2.677280 31.943300 -5.051100 22.291600 -0.000001 0.000005 -14.155500 5.176430 3.304170 12.994500 -0.242716 -4.980390 88.470500 5.429830 -74.242200 -5.348130 -0.000001 -0.000004 -58.304900 8.728900 -23.629800 -24.328900 0.000322 -0.000009 -8.761540 -8.780390 -45.270400 -22.291500 -0.000108 -0.000004 8.218010 5.497650 -6.438580 -2.192480 -6.469440 -0.000000 -177.124000 -4.212560 -25.237100 39.081100 -0.000007 -0.000012 0.154832 -0.115903 53.181600 40.985400 -0.000006 -0.000013 -7.785150 13.835200 -51.404000 11.754300 -0.000000 0.000003 0.000840 0.015604 -15.944000 -2.192510 6.469440 -0.000001 178.409000 13.712900 -178.381000 -39.081100 -0.002282 -0.040193 -0.042038 0.123196 20.213100 -40.985400 0.000008 0.000006 -12.085200 -3.719320 -64.657400 -11.754300 -0.000006 -0.000006 0.001565 0.134917 -11.102000
